<svg id="Layer_1" enable-background="new 0 0 512 512" height="512" viewBox="0 0 512 512" width="512" xmlns="http://www.w3.org/2000/svg"><g><path d="m271 220.833h-30v20.167h-20.167v30h20.167v20.167h30v-20.167h20.167v-30h-20.167z"/><path d="m512 241h-28.087c-3.565-55.362-26.83-106.916-66.414-146.5-39.583-39.583-91.137-62.848-146.499-66.414v-28.086h-30v28.086c-55.362 3.566-106.916 26.831-146.499 66.414-39.584 39.584-62.849 91.138-66.414 146.5h-28.087v30h28.087c3.565 55.362 26.83 106.916 66.414 146.5 39.583 39.584 91.137 62.849 146.499 66.414v28.086h30v-28.086c55.362-3.565 106.916-26.83 146.499-66.414 39.584-39.583 62.849-91.138 66.414-146.5h28.087zm-58.167 0h-74.043c-6.839-56.789-52.002-101.952-108.79-108.791v-74.042c97.464 7.32 175.513 85.369 182.833 182.833zm-104.332 30c-6.429 40.222-38.279 72.073-78.501 78.501v-24.503h-30v24.503c-40.222-6.429-72.072-38.279-78.501-78.501h24.502v-30h-24.502c6.429-40.222 38.279-72.073 78.501-78.501v24.503h30v-24.503c40.222 6.429 72.072 38.279 78.501 78.501h-24.502v30zm-108.501-212.833v74.042c-56.788 6.839-101.951 52.002-108.79 108.791h-74.043c7.32-97.464 85.369-175.513 182.833-182.833zm-182.833 212.833h74.043c6.839 56.789 52.002 101.952 108.79 108.791v74.043c-97.464-7.321-175.513-85.37-182.833-182.834zm212.833 182.833v-74.043c56.788-6.839 101.951-52.002 108.79-108.791h74.043c-7.32 97.465-85.369 175.514-182.833 182.834z"/></g></svg>